<?xml version="1.0" encoding="utf-8"?>
<!-- Generator: Adobe Illustrator 16.0.0, SVG Export Plug-In . SVG Version: 6.00 Build 0)  -->
<!DOCTYPE svg PUBLIC "-//W3C//DTD SVG 1.1//EN" "http://www.w3.org/Graphics/SVG/1.1/DTD/svg11.dtd">
<svg version="1.1" id="Capa_1" xmlns="http://www.w3.org/2000/svg" xmlns:xlink="http://www.w3.org/1999/xlink" viewBox="0 0 612 792"  xml:space="preserve">
	 <defs>
		<g id="cart_top" fill="#F7941F">
			<path class="cart_top-seta" d="M344.146,223.854c3.932,6.797,14.07,6.779,17.988-0.013l49.67-74.677c1.998-3.469,1.811-7.883-0.48-11.159
				c-2.172-3.106-5.539-4.42-9.223-4.416c-3.643,0.002-7.283,0.002-10.924,0.004l-17.238,0.013V58.84
				c0-11.511-9.332-20.84-20.844-20.84s-20.842,9.329-20.842,20.84v74.791l-12.877,0.009l-16.022,0.013
				c-7.839,0.002-12.917,8.777-8.983,15.587L344.146,223.854z"/>
			<g>
				<circle cx="222.336" cy="613.488" r="53.006"/>
			</g>
			<g>
				<circle cx="472.396" cy="613.488" r="53.006"/>
			</g>
			<g>
				<path d="M608.748,264.179c-3.173-4.303-8.19-6.841-13.544-6.841H173.455c-6.445,0-12.315-3.688-15.131-9.479l-52.173-107.698
					c-4.343-8.983-13.445-14.674-23.42-14.674H13.385C6.009,125.506,0,131.475,0,138.872v16.915c0,7.397,6.009,13.385,13.385,13.385
					h49.635c3.431,0,6.425,2.32,7.317,5.632l83.168,315.757c7.952,30.241,35.317,51.34,66.59,51.34h258.625
					c30.162,0,56.774-19.611,65.737-48.386l66.769-214.384C612.833,274.034,611.9,268.482,608.748,264.179z M497.144,478.801
					c-2.559,8.091-9.955,13.564-18.442,13.564H220.115c-8.745,0-16.419-5.93-18.64-14.417l-41.049-155.826
					c-0.972-3.629-0.178-7.496,2.102-10.49c2.3-2.975,5.85-4.719,9.598-4.719h362.08c3.847,0,7.476,1.824,9.757,4.938
					c2.28,3.093,2.935,7.099,1.824,10.768L497.144,478.801z"/>
			</g>
		</g>
	</defs>
</svg>
