<?xml version="1.0" encoding="utf-8"?>
<!-- Generator: Adobe Illustrator 16.0.0, SVG Export Plug-In . SVG Version: 6.00 Build 0)  -->
<!DOCTYPE svg PUBLIC "-//W3C//DTD SVG 1.1//EN" "http://www.w3.org/Graphics/SVG/1.1/DTD/svg11.dtd">
<svg version="1.1" id="Capa_1" xmlns="http://www.w3.org/2000/svg" xmlns:xlink="http://www.w3.org/1999/xlink" viewBox="0 0 612 792" xml:space="preserve">
	<defs>
		<g id="heart_top">
			<path fill="#F7941F" d="M484.942,507.671C474.5,514.5,462.5,520.5,452.769,528.551c-2.605,1.924-5.218,3.834-7.833,5.736
		c-13.072,9.511-26.209,18.809-38.983,28.404c-2.721,2.235-5.439,4.451-8.152,6.654c-8.117,6.611-16.183,13.11-23.912,19.684
		c-2.381,2.378-4.725,4.787-7.053,7.205c-6.287,6.53-12.459,13.129-18.535,19.772c-2.025,2.215-4.039,4.435-6.045,6.659
		C334.5,631.5,326.5,640.5,318.647,649.501c-1.934,2.245-3.86,4.49-5.779,6.735c-1.92,2.245-3.833,4.49-5.739,6.735
		c-1.139-2.789-2.322-5.557-3.551-8.301c-7.539-14.085-15.559-27.628-24.345-40.696c-1.757-2.613-3.545-5.208-5.366-7.784
		c-7.347-9.876-15.115-19.322-23.26-28.404c-2.036-2.271-4.097-4.518-6.192-6.736c-4.729-4.638-9.526-9.303-14.407-13.944
		c-2.441-2.32-4.908-4.635-7.42-6.936C201.5,529.5,176.5,513.5,153.704,496.899c-2.428-1.722-4.851-3.446-7.266-5.177
		c-9.662-6.92-19.211-13.918-28.726-21.049c-2.754-1.985-5.553-3.957-8.333-5.993c-15.222-10.655-29.714-23.287-42.707-37.349
		c-2.606-2.813-5.154-5.682-7.73-8.604c-6.432-6.968-12.555-14.366-18.116-22.163c-1.858-2.599-3.654-5.243-5.428-7.938
		C16.5,363.5,8.5,332.5,9.217,301.816c0.013-3.436,0.098-6.854,0.31-10.238c2.296-37.227,20.897-70.381,47.862-94.185
		c2.64-2.33,5.36-4.571,8.153-6.717c5.792-4.035,11.825-7.704,18.049-10.98c3.112-1.638,6.271-3.174,9.437-4.601
		C123.5,160.5,158.5,156.5,190.841,165.194c2.628,0.644,5.244,1.341,7.846,2.087c13.008,3.73,25.65,8.687,37.553,14.368
		c3.025,1.709,5.979,3.541,8.852,5.501c8.619,5.881,16.509,12.922,23.409,21.311c2.336,2.58,4.562,5.262,6.665,8.049
		c4.206,5.575,7.924,11.57,11.071,17.965c1.828,2.985,3.543,6.032,5.139,9.144c3.192,6.222,5.909,12.707,8.104,19.414
		c1.503,3.506,3.022,7.097,4.472,10.714c2.9,7.234,5.439,14.591,7.619,21.992c9.911-48.772,44.59-86.51,88.445-104.853
		c3.373-1.411,6.801-2.708,10.276-3.885c25.208-7.499,51.208-11.499,77.479-5.99c3.788,0.662,7.573,1.474,11.35,2.437
		c106.18,27.308,132.715,171.648,70.42,253.879c-6.784,9.896-14.68,19.028-23.732,27.153c-2.263,2.031-4.599,3.999-7.001,5.9
		C523.5,482.5,509.5,493.5,493.01,503.776C490.309,505.161,487.596,506.438,484.942,507.671z"/>
	</defs>
	</g>

</svg>
